
Release info:

General
Format                                   : Matroska
Format version                           : Version 2
File size                                : 698 MiB
Duration                                 : 1h 29mn
Overall bit rate                         : 1 091 Kbps


Video
ID                                       : 1
Format                                   : MPEG-4 Visual
Format profile                           : Simple@L3
Format settings, BVOP                    : No
Format settings, QPel                    : No
Format settings, GMC                     : No warppoints
Format settings, Matrix                  : Default (H.263)
Codec ID                                 : V_MS/VFW/FOURCC / XVID
Codec ID/Hint                            : XviD
Duration                                 : 1h 29mn
Bit rate                                 : 942 Kbps
Width                                    : 624 pixels
Height                                   : 352 pixels
Display aspect ratio                     : 16:9
Frame rate mode                          : Constant
Frame rate                               : 23.976 fps
Color space                              : YUV
Chroma subsampling                       : 4:2:0
Bit depth                                : 8 bits
Scan type                                : Progressive
Compression mode                         : Lossy
Bits/(Pixel*Frame)                       : 0.179
Stream size                              : 602 MiB (86%)
Language                                 : English
Default                                  : Yes
Forced                                   : No

Audio
ID                                       : 2
Format                                   : MPEG Audio
Format version                           : Version 1
Format profile                           : Layer 3
Mode                                     : Joint stereo
Mode extension                           : MS Stereo
Muxing mode                              : Header stripping
Codec ID                                 : A_MPEG/L3
Codec ID/Hint                            : MP3
Duration                                 : 1h 29mn
Bit rate mode                            : Constant
Bit rate                                 : 128 Kbps
Channel(s)                               : 2 channels
Sampling rate                            : 48.0 KHz
Compression mode                         : Lossy
Stream size                              : 81.9 MiB (12%)
Language                                 : English
Default                                  : Yes
Forced                                   : No



Source:
credit to original movie ripper PTPOWER (Thanks)

IMDB Info:

A college student gets involved in the wild partying lifestyle of the professional freestyle motocross world.

Director: Nick Parada
Writers: Kim MacKenzie (screenplay), Nick Parada (screenplay)
Stars: D.J. Bennett, Jakob Bokulich and Mario Castillo

Genres: Action | Crime | Drama
 
http://www.imdb.com/title/tt1690540/

Screen Shot:
 
http://www.shotpix.com/images/33395225949707931535.png 
http://www.shotpix.com/images/17972214565627546732.png 
http://www.shotpix.com/images/63941482572605461633.png 
http://www.shotpix.com/images/79984710221014699003.png 
http://www.shotpix.com/images/39300874829618028444.png 
http://www.shotpix.com/images/59114119640056340105.png 
http://www.shotpix.com/images/81929980519250459940.png